<svg width="180" height="40" viewBox="0 0 180 40" fill="none" xmlns="http://www.w3.org/2000/svg">
  <path d="M0 8C0 3.58172 3.58172 0 8 0H32C36.4183 0 40 3.58172 40 8V32C40 36.4183 36.4183 40 32 40H8C3.58172 40 0 36.4183 0 32V8Z" fill="#6366F1"/>
  <path d="M20 8L12 20L20 32L28 20L20 8Z" fill="white"/>
  <path d="M52 12V28H55V21H65V28H68V12H65V18H55V12H52Z" fill="#111827"/>
  <path d="M73 12L80 24.7273L87 12H90L81 28H79L70 12H73Z" fill="#111827"/>
  <path d="M91 12V15H97V28H100V15H106V12H91Z" fill="#111827"/>
  <path d="M108 12V28H120V25H111V21H119V18H111V15H120V12H108Z" fill="#111827"/>
  <path d="M122 12V28H125V22H129L134 28H138L132 21.5L137.5 12H134L130 19H125V12H122Z" fill="#111827"/>
  <path d="M141 20C141 15.5818 144.582 12 149 12H154C158.418 12 162 15.5818 162 20C162 24.4182 158.418 28 154 28H149C144.582 28 141 24.4182 141 20ZM144 20C144 22.7614 146.239 25 149 25H154C156.761 25 159 22.7614 159 20C159 17.2386 156.761 15 154 15H149C146.239 15 144 17.2386 144 20Z" fill="#111827"/>
  <path d="M166 12V28H174C178.418 28 182 24.4182 182 20C182 15.5818 178.418 12 174 12H166ZM169 15H174C176.761 15 179 17.2386 179 20C179 22.7614 176.761 25 174 25H169V15Z" fill="#111827"/>
  <path d="M45 34V36H48V34H45Z" fill="#6366F1"/>
  <path d="M49 34L51 36H53L51 34H49Z" fill="#6366F1"/>
  <path d="M55 34V36H58V34H55Z" fill="#6366F1"/>
  <path d="M177 34V36H180V34H177Z" fill="#6366F1"/>
</svg> 